<svg xmlns="http://www.w3.org/2000/svg" width="253" height="125" viewBox="0 0 253 125">
  <g id="Group_318" data-name="Group 318" transform="translate(-170 -399)" opacity="0.42">
    <circle id="Ellipse_10" data-name="Ellipse 10" cx="5.5" cy="5.5" r="5.5" transform="translate(170 399)" fill="#62c5ba"/>
    <circle id="Ellipse_10-2" data-name="Ellipse 10" cx="5.5" cy="5.5" r="5.5" transform="translate(192 399)" fill="#62c5ba"/>
    <circle id="Ellipse_10-3" data-name="Ellipse 10" cx="5.5" cy="5.5" r="5.5" transform="translate(214 399)" fill="#62c5ba"/>
    <circle id="Ellipse_10-4" data-name="Ellipse 10" cx="5.5" cy="5.5" r="5.5" transform="translate(236 399)" fill="#62c5ba"/>
    <circle id="Ellipse_10-5" data-name="Ellipse 10" cx="5.5" cy="5.5" r="5.5" transform="translate(258 399)" fill="#62c5ba"/>
    <circle id="Ellipse_10-6" data-name="Ellipse 10" cx="5.5" cy="5.5" r="5.5" transform="translate(280 399)" fill="#62c5ba"/>
    <circle id="Ellipse_10-7" data-name="Ellipse 10" cx="5.5" cy="5.5" r="5.5" transform="translate(302 399)" fill="#62c5ba"/>
    <circle id="Ellipse_10-8" data-name="Ellipse 10" cx="5.5" cy="5.5" r="5.5" transform="translate(324 399)" fill="#62c5ba"/>
    <circle id="Ellipse_10-9" data-name="Ellipse 10" cx="5.5" cy="5.5" r="5.5" transform="translate(346 399)" fill="#62c5ba"/>
    <circle id="Ellipse_10-10" data-name="Ellipse 10" cx="5.5" cy="5.5" r="5.5" transform="translate(368 399)" fill="#62c5ba"/>
    <circle id="Ellipse_10-11" data-name="Ellipse 10" cx="5.5" cy="5.5" r="5.5" transform="translate(390 399)" fill="#62c5ba"/>
    <circle id="Ellipse_10-12" data-name="Ellipse 10" cx="5.5" cy="5.5" r="5.5" transform="translate(412 399)" fill="#62c5ba"/>
    <circle id="Ellipse_10-13" data-name="Ellipse 10" cx="5.5" cy="5.5" r="5.5" transform="translate(170 418)" fill="#62c5ba"/>
    <circle id="Ellipse_10-14" data-name="Ellipse 10" cx="5.5" cy="5.5" r="5.5" transform="translate(192 418)" fill="#62c5ba"/>
    <circle id="Ellipse_10-15" data-name="Ellipse 10" cx="5.5" cy="5.5" r="5.5" transform="translate(214 418)" fill="#62c5ba"/>
    <circle id="Ellipse_10-16" data-name="Ellipse 10" cx="5.5" cy="5.5" r="5.5" transform="translate(236 418)" fill="#62c5ba"/>
    <circle id="Ellipse_10-17" data-name="Ellipse 10" cx="5.5" cy="5.5" r="5.5" transform="translate(258 418)" fill="#62c5ba"/>
    <circle id="Ellipse_10-18" data-name="Ellipse 10" cx="5.5" cy="5.5" r="5.5" transform="translate(280 418)" fill="#62c5ba"/>
    <circle id="Ellipse_10-19" data-name="Ellipse 10" cx="5.5" cy="5.5" r="5.5" transform="translate(302 418)" fill="#62c5ba"/>
    <circle id="Ellipse_10-20" data-name="Ellipse 10" cx="5.5" cy="5.5" r="5.5" transform="translate(324 418)" fill="#62c5ba"/>
    <circle id="Ellipse_10-21" data-name="Ellipse 10" cx="5.5" cy="5.5" r="5.5" transform="translate(346 418)" fill="#62c5ba"/>
    <circle id="Ellipse_10-22" data-name="Ellipse 10" cx="5.5" cy="5.5" r="5.5" transform="translate(368 418)" fill="#62c5ba"/>
    <circle id="Ellipse_10-23" data-name="Ellipse 10" cx="5.5" cy="5.5" r="5.5" transform="translate(390 418)" fill="#62c5ba"/>
    <circle id="Ellipse_10-24" data-name="Ellipse 10" cx="5.5" cy="5.5" r="5.5" transform="translate(412 418)" fill="#62c5ba"/>
    <circle id="Ellipse_10-25" data-name="Ellipse 10" cx="5.5" cy="5.5" r="5.5" transform="translate(170 437)" fill="#62c5ba"/>
    <circle id="Ellipse_10-26" data-name="Ellipse 10" cx="5.5" cy="5.5" r="5.5" transform="translate(192 437)" fill="#62c5ba"/>
    <circle id="Ellipse_10-27" data-name="Ellipse 10" cx="5.5" cy="5.5" r="5.5" transform="translate(214 437)" fill="#62c5ba"/>
    <circle id="Ellipse_10-28" data-name="Ellipse 10" cx="5.5" cy="5.5" r="5.5" transform="translate(236 437)" fill="#62c5ba"/>
    <circle id="Ellipse_10-29" data-name="Ellipse 10" cx="5.5" cy="5.5" r="5.5" transform="translate(258 437)" fill="#62c5ba"/>
    <circle id="Ellipse_10-30" data-name="Ellipse 10" cx="5.5" cy="5.5" r="5.5" transform="translate(280 437)" fill="#62c5ba"/>
    <circle id="Ellipse_10-31" data-name="Ellipse 10" cx="5.5" cy="5.5" r="5.5" transform="translate(302 437)" fill="#62c5ba"/>
    <circle id="Ellipse_10-32" data-name="Ellipse 10" cx="5.5" cy="5.5" r="5.5" transform="translate(324 437)" fill="#62c5ba"/>
    <circle id="Ellipse_10-33" data-name="Ellipse 10" cx="5.5" cy="5.5" r="5.5" transform="translate(346 437)" fill="#62c5ba"/>
    <circle id="Ellipse_10-34" data-name="Ellipse 10" cx="5.5" cy="5.5" r="5.5" transform="translate(368 437)" fill="#62c5ba"/>
    <circle id="Ellipse_10-35" data-name="Ellipse 10" cx="5.5" cy="5.5" r="5.5" transform="translate(390 437)" fill="#62c5ba"/>
    <circle id="Ellipse_10-36" data-name="Ellipse 10" cx="5.5" cy="5.5" r="5.5" transform="translate(412 437)" fill="#62c5ba"/>
    <circle id="Ellipse_10-37" data-name="Ellipse 10" cx="5.5" cy="5.5" r="5.5" transform="translate(170 456)" fill="#62c5ba"/>
    <circle id="Ellipse_10-38" data-name="Ellipse 10" cx="5.5" cy="5.5" r="5.5" transform="translate(192 456)" fill="#62c5ba"/>
    <circle id="Ellipse_10-39" data-name="Ellipse 10" cx="5.5" cy="5.5" r="5.5" transform="translate(214 456)" fill="#62c5ba"/>
    <circle id="Ellipse_10-40" data-name="Ellipse 10" cx="5.5" cy="5.5" r="5.5" transform="translate(236 456)" fill="#62c5ba"/>
    <circle id="Ellipse_10-41" data-name="Ellipse 10" cx="5.5" cy="5.5" r="5.5" transform="translate(258 456)" fill="#62c5ba"/>
    <circle id="Ellipse_10-42" data-name="Ellipse 10" cx="5.5" cy="5.5" r="5.5" transform="translate(280 456)" fill="#62c5ba"/>
    <circle id="Ellipse_10-43" data-name="Ellipse 10" cx="5.5" cy="5.5" r="5.5" transform="translate(302 456)" fill="#62c5ba"/>
    <circle id="Ellipse_10-44" data-name="Ellipse 10" cx="5.5" cy="5.5" r="5.5" transform="translate(324 456)" fill="#62c5ba"/>
    <circle id="Ellipse_10-45" data-name="Ellipse 10" cx="5.5" cy="5.5" r="5.5" transform="translate(346 456)" fill="#62c5ba"/>
    <circle id="Ellipse_10-46" data-name="Ellipse 10" cx="5.5" cy="5.5" r="5.5" transform="translate(368 456)" fill="#62c5ba"/>
    <circle id="Ellipse_10-47" data-name="Ellipse 10" cx="5.5" cy="5.5" r="5.5" transform="translate(390 456)" fill="#62c5ba"/>
    <circle id="Ellipse_10-48" data-name="Ellipse 10" cx="5.5" cy="5.5" r="5.5" transform="translate(412 456)" fill="#62c5ba"/>
    <circle id="Ellipse_10-49" data-name="Ellipse 10" cx="5.5" cy="5.5" r="5.5" transform="translate(170 475)" fill="#62c5ba"/>
    <circle id="Ellipse_10-50" data-name="Ellipse 10" cx="5.5" cy="5.5" r="5.5" transform="translate(192 475)" fill="#62c5ba"/>
    <circle id="Ellipse_10-51" data-name="Ellipse 10" cx="5.5" cy="5.5" r="5.5" transform="translate(214 475)" fill="#62c5ba"/>
    <circle id="Ellipse_10-52" data-name="Ellipse 10" cx="5.5" cy="5.5" r="5.5" transform="translate(236 475)" fill="#62c5ba"/>
    <circle id="Ellipse_10-53" data-name="Ellipse 10" cx="5.5" cy="5.5" r="5.5" transform="translate(258 475)" fill="#62c5ba"/>
    <circle id="Ellipse_10-54" data-name="Ellipse 10" cx="5.5" cy="5.5" r="5.5" transform="translate(280 475)" fill="#62c5ba"/>
    <circle id="Ellipse_10-55" data-name="Ellipse 10" cx="5.5" cy="5.5" r="5.5" transform="translate(302 475)" fill="#62c5ba"/>
    <circle id="Ellipse_10-56" data-name="Ellipse 10" cx="5.5" cy="5.5" r="5.5" transform="translate(324 475)" fill="#62c5ba"/>
    <circle id="Ellipse_10-57" data-name="Ellipse 10" cx="5.5" cy="5.5" r="5.5" transform="translate(346 475)" fill="#62c5ba"/>
    <circle id="Ellipse_10-58" data-name="Ellipse 10" cx="5.5" cy="5.5" r="5.5" transform="translate(368 475)" fill="#62c5ba"/>
    <circle id="Ellipse_10-59" data-name="Ellipse 10" cx="5.5" cy="5.5" r="5.5" transform="translate(390 475)" fill="#62c5ba"/>
    <circle id="Ellipse_10-60" data-name="Ellipse 10" cx="5.5" cy="5.5" r="5.5" transform="translate(412 475)" fill="#62c5ba"/>
    <circle id="Ellipse_10-61" data-name="Ellipse 10" cx="5.5" cy="5.5" r="5.5" transform="translate(170 494)" fill="#62c5ba"/>
    <circle id="Ellipse_10-62" data-name="Ellipse 10" cx="5.5" cy="5.5" r="5.5" transform="translate(192 494)" fill="#62c5ba"/>
    <circle id="Ellipse_10-63" data-name="Ellipse 10" cx="5.5" cy="5.5" r="5.5" transform="translate(214 494)" fill="#62c5ba"/>
    <circle id="Ellipse_10-64" data-name="Ellipse 10" cx="5.5" cy="5.5" r="5.5" transform="translate(236 494)" fill="#62c5ba"/>
    <circle id="Ellipse_10-65" data-name="Ellipse 10" cx="5.5" cy="5.5" r="5.5" transform="translate(258 494)" fill="#62c5ba"/>
    <circle id="Ellipse_10-66" data-name="Ellipse 10" cx="5.5" cy="5.5" r="5.5" transform="translate(280 494)" fill="#62c5ba"/>
    <circle id="Ellipse_10-67" data-name="Ellipse 10" cx="5.5" cy="5.5" r="5.5" transform="translate(302 494)" fill="#62c5ba"/>
    <circle id="Ellipse_10-68" data-name="Ellipse 10" cx="5.5" cy="5.5" r="5.5" transform="translate(324 494)" fill="#62c5ba"/>
    <circle id="Ellipse_10-69" data-name="Ellipse 10" cx="5.5" cy="5.5" r="5.5" transform="translate(346 494)" fill="#62c5ba"/>
    <circle id="Ellipse_10-70" data-name="Ellipse 10" cx="5.5" cy="5.5" r="5.5" transform="translate(368 494)" fill="#62c5ba"/>
    <circle id="Ellipse_10-71" data-name="Ellipse 10" cx="5.5" cy="5.5" r="5.5" transform="translate(390 494)" fill="#62c5ba"/>
    <circle id="Ellipse_10-72" data-name="Ellipse 10" cx="5.5" cy="5.5" r="5.5" transform="translate(412 494)" fill="#62c5ba"/>
    <circle id="Ellipse_10-73" data-name="Ellipse 10" cx="5.5" cy="5.5" r="5.5" transform="translate(170 513)" fill="#62c5ba"/>
    <circle id="Ellipse_10-74" data-name="Ellipse 10" cx="5.5" cy="5.5" r="5.5" transform="translate(192 513)" fill="#62c5ba"/>
    <circle id="Ellipse_10-75" data-name="Ellipse 10" cx="5.5" cy="5.5" r="5.5" transform="translate(214 513)" fill="#62c5ba"/>
    <circle id="Ellipse_10-76" data-name="Ellipse 10" cx="5.5" cy="5.5" r="5.5" transform="translate(236 513)" fill="#62c5ba"/>
    <circle id="Ellipse_10-77" data-name="Ellipse 10" cx="5.5" cy="5.5" r="5.5" transform="translate(258 513)" fill="#62c5ba"/>
    <circle id="Ellipse_10-78" data-name="Ellipse 10" cx="5.5" cy="5.5" r="5.5" transform="translate(280 513)" fill="#62c5ba"/>
    <circle id="Ellipse_10-79" data-name="Ellipse 10" cx="5.5" cy="5.5" r="5.5" transform="translate(302 513)" fill="#62c5ba"/>
    <circle id="Ellipse_10-80" data-name="Ellipse 10" cx="5.5" cy="5.5" r="5.5" transform="translate(324 513)" fill="#62c5ba"/>
    <circle id="Ellipse_10-81" data-name="Ellipse 10" cx="5.5" cy="5.5" r="5.5" transform="translate(346 513)" fill="#62c5ba"/>
    <circle id="Ellipse_10-82" data-name="Ellipse 10" cx="5.5" cy="5.5" r="5.5" transform="translate(368 513)" fill="#62c5ba"/>
    <circle id="Ellipse_10-83" data-name="Ellipse 10" cx="5.5" cy="5.5" r="5.5" transform="translate(390 513)" fill="#62c5ba"/>
    <circle id="Ellipse_10-84" data-name="Ellipse 10" cx="5.5" cy="5.5" r="5.5" transform="translate(412 513)" fill="#62c5ba"/>
  </g>
</svg>