<svg xmlns="http://www.w3.org/2000/svg" xmlns:xlink="http://www.w3.org/1999/xlink" width="41" height="51" viewBox="0 0 41 51">
  <defs>
    <clipPath id="clip-path">
      <rect width="41" height="51" fill="none"/>
    </clipPath>
  </defs>
  <g id="Repeat_Grid_21" data-name="Repeat Grid 21" opacity="0.421" clip-path="url(#clip-path)">
    <g transform="translate(-2609 118)">
      <circle id="Ellipse_10" data-name="Ellipse 10" cx="5.5" cy="5.5" r="5.5" transform="translate(2609 -118)" fill="#fff"/>
      <circle id="Ellipse_12" data-name="Ellipse 12" cx="5.5" cy="5.5" r="5.5" transform="translate(2609 77)" fill="#fff"/>
    </g>
    <g transform="translate(-2587 118)">
      <circle id="Ellipse_10-2" data-name="Ellipse 10" cx="5.5" cy="5.5" r="5.5" transform="translate(2609 -118)" fill="#fff"/>
      <circle id="Ellipse_12-2" data-name="Ellipse 12" cx="5.5" cy="5.5" r="5.5" transform="translate(2609 77)" fill="#fff"/>
    </g>
    <g transform="translate(-2609 137)">
      <circle id="Ellipse_10-3" data-name="Ellipse 10" cx="5.5" cy="5.5" r="5.5" transform="translate(2609 -118)" fill="#fff"/>
      <circle id="Ellipse_12-3" data-name="Ellipse 12" cx="5.5" cy="5.5" r="5.5" transform="translate(2609 77)" fill="#fff"/>
    </g>
    <g transform="translate(-2587 137)">
      <circle id="Ellipse_10-4" data-name="Ellipse 10" cx="5.5" cy="5.5" r="5.5" transform="translate(2609 -118)" fill="#fff"/>
      <circle id="Ellipse_12-4" data-name="Ellipse 12" cx="5.5" cy="5.5" r="5.5" transform="translate(2609 77)" fill="#fff"/>
    </g>
    <g transform="translate(-2609 156)">
      <circle id="Ellipse_10-5" data-name="Ellipse 10" cx="5.5" cy="5.5" r="5.5" transform="translate(2609 -118)" fill="#fff"/>
      <circle id="Ellipse_12-5" data-name="Ellipse 12" cx="5.5" cy="5.5" r="5.5" transform="translate(2609 77)" fill="#fff"/>
    </g>
    <g transform="translate(-2587 156)">
      <circle id="Ellipse_10-6" data-name="Ellipse 10" cx="5.5" cy="5.5" r="5.5" transform="translate(2609 -118)" fill="#fff"/>
      <circle id="Ellipse_12-6" data-name="Ellipse 12" cx="5.5" cy="5.5" r="5.5" transform="translate(2609 77)" fill="#fff"/>
    </g>
  </g>
</svg>