<svg xmlns="http://www.w3.org/2000/svg" xmlns:xlink="http://www.w3.org/1999/xlink" width="85" height="73" viewBox="0 0 85 73">
  <defs>
    <clipPath id="clip-path">
      <rect width="85" height="73" fill="none"/>
    </clipPath>
  </defs>
  <g id="Repeat_Grid_53" data-name="Repeat Grid 53" opacity="0.229" clip-path="url(#clip-path)">
    <g transform="translate(-2609 118)">
      <circle id="Ellipse_10" data-name="Ellipse 10" cx="5.5" cy="5.5" r="5.5" transform="translate(2609 -118)" fill="#4a72b7"/>
      <circle id="Ellipse_12" data-name="Ellipse 12" cx="5.5" cy="5.5" r="5.5" transform="translate(2609 77)" fill="#4a72b7"/>
    </g>
    <g transform="translate(-2587 118)">
      <circle id="Ellipse_10-2" data-name="Ellipse 10" cx="5.5" cy="5.5" r="5.5" transform="translate(2609 -118)" fill="#4a72b7"/>
      <circle id="Ellipse_12-2" data-name="Ellipse 12" cx="5.5" cy="5.5" r="5.5" transform="translate(2609 77)" fill="#4a72b7"/>
    </g>
    <g transform="translate(-2565 118)">
      <circle id="Ellipse_10-3" data-name="Ellipse 10" cx="5.5" cy="5.5" r="5.5" transform="translate(2609 -118)" fill="#4a72b7"/>
      <circle id="Ellipse_12-3" data-name="Ellipse 12" cx="5.5" cy="5.5" r="5.5" transform="translate(2609 77)" fill="#4a72b7"/>
    </g>
    <g transform="translate(-2543 118)">
      <circle id="Ellipse_10-4" data-name="Ellipse 10" cx="5.5" cy="5.5" r="5.5" transform="translate(2609 -118)" fill="#4a72b7"/>
      <circle id="Ellipse_12-4" data-name="Ellipse 12" cx="5.5" cy="5.5" r="5.5" transform="translate(2609 77)" fill="#4a72b7"/>
    </g>
    <g transform="translate(-2609 137)">
      <circle id="Ellipse_10-5" data-name="Ellipse 10" cx="5.5" cy="5.5" r="5.5" transform="translate(2609 -118)" fill="#4a72b7"/>
      <circle id="Ellipse_12-5" data-name="Ellipse 12" cx="5.5" cy="5.5" r="5.5" transform="translate(2609 77)" fill="#4a72b7"/>
    </g>
    <g transform="translate(-2587 137)">
      <circle id="Ellipse_10-6" data-name="Ellipse 10" cx="5.5" cy="5.5" r="5.5" transform="translate(2609 -118)" fill="#4a72b7"/>
      <circle id="Ellipse_12-6" data-name="Ellipse 12" cx="5.5" cy="5.5" r="5.5" transform="translate(2609 77)" fill="#4a72b7"/>
    </g>
    <g transform="translate(-2565 137)">
      <circle id="Ellipse_10-7" data-name="Ellipse 10" cx="5.5" cy="5.5" r="5.5" transform="translate(2609 -118)" fill="#4a72b7"/>
      <circle id="Ellipse_12-7" data-name="Ellipse 12" cx="5.5" cy="5.5" r="5.5" transform="translate(2609 77)" fill="#4a72b7"/>
    </g>
    <g transform="translate(-2543 137)">
      <circle id="Ellipse_10-8" data-name="Ellipse 10" cx="5.5" cy="5.5" r="5.5" transform="translate(2609 -118)" fill="#4a72b7"/>
      <circle id="Ellipse_12-8" data-name="Ellipse 12" cx="5.5" cy="5.5" r="5.5" transform="translate(2609 77)" fill="#4a72b7"/>
    </g>
    <g transform="translate(-2609 156)">
      <circle id="Ellipse_10-9" data-name="Ellipse 10" cx="5.5" cy="5.5" r="5.5" transform="translate(2609 -118)" fill="#4a72b7"/>
      <circle id="Ellipse_12-9" data-name="Ellipse 12" cx="5.5" cy="5.5" r="5.5" transform="translate(2609 77)" fill="#4a72b7"/>
    </g>
    <g transform="translate(-2587 156)">
      <circle id="Ellipse_10-10" data-name="Ellipse 10" cx="5.5" cy="5.5" r="5.5" transform="translate(2609 -118)" fill="#4a72b7"/>
      <circle id="Ellipse_12-10" data-name="Ellipse 12" cx="5.5" cy="5.5" r="5.5" transform="translate(2609 77)" fill="#4a72b7"/>
    </g>
    <g transform="translate(-2565 156)">
      <circle id="Ellipse_10-11" data-name="Ellipse 10" cx="5.5" cy="5.5" r="5.5" transform="translate(2609 -118)" fill="#4a72b7"/>
      <circle id="Ellipse_12-11" data-name="Ellipse 12" cx="5.5" cy="5.5" r="5.5" transform="translate(2609 77)" fill="#4a72b7"/>
    </g>
    <g transform="translate(-2543 156)">
      <circle id="Ellipse_10-12" data-name="Ellipse 10" cx="5.5" cy="5.5" r="5.5" transform="translate(2609 -118)" fill="#4a72b7"/>
      <circle id="Ellipse_12-12" data-name="Ellipse 12" cx="5.5" cy="5.5" r="5.5" transform="translate(2609 77)" fill="#4a72b7"/>
    </g>
    <g transform="translate(-2609 175)">
      <circle id="Ellipse_10-13" data-name="Ellipse 10" cx="5.5" cy="5.5" r="5.5" transform="translate(2609 -118)" fill="#4a72b7"/>
      <circle id="Ellipse_12-13" data-name="Ellipse 12" cx="5.5" cy="5.5" r="5.5" transform="translate(2609 77)" fill="#4a72b7"/>
    </g>
    <g transform="translate(-2587 175)">
      <circle id="Ellipse_10-14" data-name="Ellipse 10" cx="5.5" cy="5.5" r="5.5" transform="translate(2609 -118)" fill="#4a72b7"/>
      <circle id="Ellipse_12-14" data-name="Ellipse 12" cx="5.5" cy="5.5" r="5.5" transform="translate(2609 77)" fill="#4a72b7"/>
    </g>
    <g transform="translate(-2565 175)">
      <circle id="Ellipse_10-15" data-name="Ellipse 10" cx="5.5" cy="5.5" r="5.5" transform="translate(2609 -118)" fill="#4a72b7"/>
      <circle id="Ellipse_12-15" data-name="Ellipse 12" cx="5.5" cy="5.5" r="5.5" transform="translate(2609 77)" fill="#4a72b7"/>
    </g>
    <g transform="translate(-2543 175)">
      <circle id="Ellipse_10-16" data-name="Ellipse 10" cx="5.5" cy="5.5" r="5.5" transform="translate(2609 -118)" fill="#4a72b7"/>
      <circle id="Ellipse_12-16" data-name="Ellipse 12" cx="5.5" cy="5.5" r="5.5" transform="translate(2609 77)" fill="#4a72b7"/>
    </g>
  </g>
</svg>