<svg xmlns="http://www.w3.org/2000/svg" xmlns:xlink="http://www.w3.org/1999/xlink" width="154" height="131" viewBox="0 0 154 131">
  <defs>
    <clipPath id="clip-path">
      <rect width="154" height="131" fill="none"/>
    </clipPath>
  </defs>
  <g id="Repeat_Grid_33" data-name="Repeat Grid 33" opacity="0.421" clip-path="url(#clip-path)">
    <g transform="translate(-2609 118)">
      <circle id="Ellipse_10" data-name="Ellipse 10" cx="5.5" cy="5.5" r="5.5" transform="translate(2609 -118)" fill="#fff"/>
      <circle id="Ellipse_12" data-name="Ellipse 12" cx="5.5" cy="5.5" r="5.5" transform="translate(2609 77)" fill="#fff"/>
    </g>
    <g transform="translate(-2587 118)">
      <circle id="Ellipse_10-2" data-name="Ellipse 10" cx="5.5" cy="5.5" r="5.5" transform="translate(2609 -118)" fill="#fff"/>
      <circle id="Ellipse_12-2" data-name="Ellipse 12" cx="5.5" cy="5.5" r="5.5" transform="translate(2609 77)" fill="#fff"/>
    </g>
    <g transform="translate(-2565 118)">
      <circle id="Ellipse_10-3" data-name="Ellipse 10" cx="5.5" cy="5.5" r="5.5" transform="translate(2609 -118)" fill="#fff"/>
      <circle id="Ellipse_12-3" data-name="Ellipse 12" cx="5.5" cy="5.5" r="5.5" transform="translate(2609 77)" fill="#fff"/>
    </g>
    <g transform="translate(-2543 118)">
      <circle id="Ellipse_10-4" data-name="Ellipse 10" cx="5.5" cy="5.5" r="5.5" transform="translate(2609 -118)" fill="#fff"/>
      <circle id="Ellipse_12-4" data-name="Ellipse 12" cx="5.5" cy="5.5" r="5.5" transform="translate(2609 77)" fill="#fff"/>
    </g>
    <g transform="translate(-2521 118)">
      <circle id="Ellipse_10-5" data-name="Ellipse 10" cx="5.5" cy="5.5" r="5.5" transform="translate(2609 -118)" fill="#fff"/>
      <circle id="Ellipse_12-5" data-name="Ellipse 12" cx="5.5" cy="5.5" r="5.5" transform="translate(2609 77)" fill="#fff"/>
    </g>
    <g transform="translate(-2499 118)">
      <circle id="Ellipse_10-6" data-name="Ellipse 10" cx="5.5" cy="5.5" r="5.5" transform="translate(2609 -118)" fill="#fff"/>
      <circle id="Ellipse_12-6" data-name="Ellipse 12" cx="5.5" cy="5.5" r="5.5" transform="translate(2609 77)" fill="#fff"/>
    </g>
    <g transform="translate(-2477 118)">
      <circle id="Ellipse_10-7" data-name="Ellipse 10" cx="5.5" cy="5.5" r="5.5" transform="translate(2609 -118)" fill="#fff"/>
      <circle id="Ellipse_12-7" data-name="Ellipse 12" cx="5.5" cy="5.5" r="5.5" transform="translate(2609 77)" fill="#fff"/>
    </g>
    <g transform="translate(-2609 137)">
      <circle id="Ellipse_10-8" data-name="Ellipse 10" cx="5.5" cy="5.5" r="5.5" transform="translate(2609 -118)" fill="#fff"/>
      <circle id="Ellipse_12-8" data-name="Ellipse 12" cx="5.5" cy="5.5" r="5.5" transform="translate(2609 77)" fill="#fff"/>
    </g>
    <g transform="translate(-2587 137)">
      <circle id="Ellipse_10-9" data-name="Ellipse 10" cx="5.5" cy="5.5" r="5.5" transform="translate(2609 -118)" fill="#fff"/>
      <circle id="Ellipse_12-9" data-name="Ellipse 12" cx="5.5" cy="5.5" r="5.5" transform="translate(2609 77)" fill="#fff"/>
    </g>
    <g transform="translate(-2565 137)">
      <circle id="Ellipse_10-10" data-name="Ellipse 10" cx="5.5" cy="5.5" r="5.5" transform="translate(2609 -118)" fill="#fff"/>
      <circle id="Ellipse_12-10" data-name="Ellipse 12" cx="5.5" cy="5.5" r="5.5" transform="translate(2609 77)" fill="#fff"/>
    </g>
    <g transform="translate(-2543 137)">
      <circle id="Ellipse_10-11" data-name="Ellipse 10" cx="5.5" cy="5.5" r="5.5" transform="translate(2609 -118)" fill="#fff"/>
      <circle id="Ellipse_12-11" data-name="Ellipse 12" cx="5.5" cy="5.5" r="5.5" transform="translate(2609 77)" fill="#fff"/>
    </g>
    <g transform="translate(-2521 137)">
      <circle id="Ellipse_10-12" data-name="Ellipse 10" cx="5.5" cy="5.5" r="5.5" transform="translate(2609 -118)" fill="#fff"/>
      <circle id="Ellipse_12-12" data-name="Ellipse 12" cx="5.5" cy="5.5" r="5.5" transform="translate(2609 77)" fill="#fff"/>
    </g>
    <g transform="translate(-2499 137)">
      <circle id="Ellipse_10-13" data-name="Ellipse 10" cx="5.5" cy="5.5" r="5.5" transform="translate(2609 -118)" fill="#fff"/>
      <circle id="Ellipse_12-13" data-name="Ellipse 12" cx="5.5" cy="5.5" r="5.5" transform="translate(2609 77)" fill="#fff"/>
    </g>
    <g transform="translate(-2477 137)">
      <circle id="Ellipse_10-14" data-name="Ellipse 10" cx="5.5" cy="5.5" r="5.5" transform="translate(2609 -118)" fill="#fff"/>
      <circle id="Ellipse_12-14" data-name="Ellipse 12" cx="5.5" cy="5.5" r="5.5" transform="translate(2609 77)" fill="#fff"/>
    </g>
    <g transform="translate(-2609 156)">
      <circle id="Ellipse_10-15" data-name="Ellipse 10" cx="5.5" cy="5.5" r="5.5" transform="translate(2609 -118)" fill="#fff"/>
      <circle id="Ellipse_12-15" data-name="Ellipse 12" cx="5.5" cy="5.5" r="5.5" transform="translate(2609 77)" fill="#fff"/>
    </g>
    <g transform="translate(-2587 156)">
      <circle id="Ellipse_10-16" data-name="Ellipse 10" cx="5.5" cy="5.5" r="5.5" transform="translate(2609 -118)" fill="#fff"/>
      <circle id="Ellipse_12-16" data-name="Ellipse 12" cx="5.5" cy="5.5" r="5.5" transform="translate(2609 77)" fill="#fff"/>
    </g>
    <g transform="translate(-2565 156)">
      <circle id="Ellipse_10-17" data-name="Ellipse 10" cx="5.5" cy="5.5" r="5.5" transform="translate(2609 -118)" fill="#fff"/>
      <circle id="Ellipse_12-17" data-name="Ellipse 12" cx="5.5" cy="5.5" r="5.5" transform="translate(2609 77)" fill="#fff"/>
    </g>
    <g transform="translate(-2543 156)">
      <circle id="Ellipse_10-18" data-name="Ellipse 10" cx="5.5" cy="5.5" r="5.5" transform="translate(2609 -118)" fill="#fff"/>
      <circle id="Ellipse_12-18" data-name="Ellipse 12" cx="5.5" cy="5.5" r="5.5" transform="translate(2609 77)" fill="#fff"/>
    </g>
    <g transform="translate(-2521 156)">
      <circle id="Ellipse_10-19" data-name="Ellipse 10" cx="5.5" cy="5.5" r="5.5" transform="translate(2609 -118)" fill="#fff"/>
      <circle id="Ellipse_12-19" data-name="Ellipse 12" cx="5.5" cy="5.5" r="5.5" transform="translate(2609 77)" fill="#fff"/>
    </g>
    <g transform="translate(-2499 156)">
      <circle id="Ellipse_10-20" data-name="Ellipse 10" cx="5.5" cy="5.5" r="5.5" transform="translate(2609 -118)" fill="#fff"/>
      <circle id="Ellipse_12-20" data-name="Ellipse 12" cx="5.5" cy="5.5" r="5.5" transform="translate(2609 77)" fill="#fff"/>
    </g>
    <g transform="translate(-2477 156)">
      <circle id="Ellipse_10-21" data-name="Ellipse 10" cx="5.5" cy="5.5" r="5.5" transform="translate(2609 -118)" fill="#fff"/>
      <circle id="Ellipse_12-21" data-name="Ellipse 12" cx="5.5" cy="5.5" r="5.5" transform="translate(2609 77)" fill="#fff"/>
    </g>
    <g transform="translate(-2609 175)">
      <circle id="Ellipse_10-22" data-name="Ellipse 10" cx="5.5" cy="5.5" r="5.5" transform="translate(2609 -118)" fill="#fff"/>
      <circle id="Ellipse_12-22" data-name="Ellipse 12" cx="5.5" cy="5.5" r="5.5" transform="translate(2609 77)" fill="#fff"/>
    </g>
    <g transform="translate(-2587 175)">
      <circle id="Ellipse_10-23" data-name="Ellipse 10" cx="5.5" cy="5.5" r="5.5" transform="translate(2609 -118)" fill="#fff"/>
      <circle id="Ellipse_12-23" data-name="Ellipse 12" cx="5.5" cy="5.5" r="5.5" transform="translate(2609 77)" fill="#fff"/>
    </g>
    <g transform="translate(-2565 175)">
      <circle id="Ellipse_10-24" data-name="Ellipse 10" cx="5.5" cy="5.5" r="5.5" transform="translate(2609 -118)" fill="#fff"/>
      <circle id="Ellipse_12-24" data-name="Ellipse 12" cx="5.5" cy="5.5" r="5.5" transform="translate(2609 77)" fill="#fff"/>
    </g>
    <g transform="translate(-2543 175)">
      <circle id="Ellipse_10-25" data-name="Ellipse 10" cx="5.5" cy="5.5" r="5.5" transform="translate(2609 -118)" fill="#fff"/>
      <circle id="Ellipse_12-25" data-name="Ellipse 12" cx="5.5" cy="5.5" r="5.5" transform="translate(2609 77)" fill="#fff"/>
    </g>
    <g transform="translate(-2521 175)">
      <circle id="Ellipse_10-26" data-name="Ellipse 10" cx="5.5" cy="5.5" r="5.5" transform="translate(2609 -118)" fill="#fff"/>
      <circle id="Ellipse_12-26" data-name="Ellipse 12" cx="5.5" cy="5.5" r="5.5" transform="translate(2609 77)" fill="#fff"/>
    </g>
    <g transform="translate(-2499 175)">
      <circle id="Ellipse_10-27" data-name="Ellipse 10" cx="5.5" cy="5.5" r="5.5" transform="translate(2609 -118)" fill="#fff"/>
      <circle id="Ellipse_12-27" data-name="Ellipse 12" cx="5.5" cy="5.5" r="5.5" transform="translate(2609 77)" fill="#fff"/>
    </g>
    <g transform="translate(-2477 175)">
      <circle id="Ellipse_10-28" data-name="Ellipse 10" cx="5.5" cy="5.5" r="5.5" transform="translate(2609 -118)" fill="#fff"/>
      <circle id="Ellipse_12-28" data-name="Ellipse 12" cx="5.5" cy="5.5" r="5.5" transform="translate(2609 77)" fill="#fff"/>
    </g>
    <g transform="translate(-2609 194)">
      <circle id="Ellipse_10-29" data-name="Ellipse 10" cx="5.5" cy="5.5" r="5.5" transform="translate(2609 -118)" fill="#fff"/>
      <circle id="Ellipse_12-29" data-name="Ellipse 12" cx="5.5" cy="5.5" r="5.5" transform="translate(2609 77)" fill="#fff"/>
    </g>
    <g transform="translate(-2587 194)">
      <circle id="Ellipse_10-30" data-name="Ellipse 10" cx="5.5" cy="5.5" r="5.5" transform="translate(2609 -118)" fill="#fff"/>
      <circle id="Ellipse_12-30" data-name="Ellipse 12" cx="5.5" cy="5.5" r="5.5" transform="translate(2609 77)" fill="#fff"/>
    </g>
    <g transform="translate(-2565 194)">
      <circle id="Ellipse_10-31" data-name="Ellipse 10" cx="5.5" cy="5.5" r="5.5" transform="translate(2609 -118)" fill="#fff"/>
      <circle id="Ellipse_12-31" data-name="Ellipse 12" cx="5.5" cy="5.5" r="5.5" transform="translate(2609 77)" fill="#fff"/>
    </g>
    <g transform="translate(-2543 194)">
      <circle id="Ellipse_10-32" data-name="Ellipse 10" cx="5.5" cy="5.5" r="5.5" transform="translate(2609 -118)" fill="#fff"/>
      <circle id="Ellipse_12-32" data-name="Ellipse 12" cx="5.5" cy="5.5" r="5.5" transform="translate(2609 77)" fill="#fff"/>
    </g>
    <g transform="translate(-2521 194)">
      <circle id="Ellipse_10-33" data-name="Ellipse 10" cx="5.5" cy="5.5" r="5.5" transform="translate(2609 -118)" fill="#fff"/>
      <circle id="Ellipse_12-33" data-name="Ellipse 12" cx="5.5" cy="5.5" r="5.5" transform="translate(2609 77)" fill="#fff"/>
    </g>
    <g transform="translate(-2499 194)">
      <circle id="Ellipse_10-34" data-name="Ellipse 10" cx="5.5" cy="5.5" r="5.5" transform="translate(2609 -118)" fill="#fff"/>
      <circle id="Ellipse_12-34" data-name="Ellipse 12" cx="5.5" cy="5.5" r="5.5" transform="translate(2609 77)" fill="#fff"/>
    </g>
    <g transform="translate(-2477 194)">
      <circle id="Ellipse_10-35" data-name="Ellipse 10" cx="5.5" cy="5.5" r="5.5" transform="translate(2609 -118)" fill="#fff"/>
      <circle id="Ellipse_12-35" data-name="Ellipse 12" cx="5.5" cy="5.5" r="5.5" transform="translate(2609 77)" fill="#fff"/>
    </g>
    <g transform="translate(-2609 213)">
      <circle id="Ellipse_10-36" data-name="Ellipse 10" cx="5.5" cy="5.5" r="5.5" transform="translate(2609 -118)" fill="#fff"/>
      <circle id="Ellipse_12-36" data-name="Ellipse 12" cx="5.5" cy="5.5" r="5.5" transform="translate(2609 77)" fill="#fff"/>
    </g>
    <g transform="translate(-2587 213)">
      <circle id="Ellipse_10-37" data-name="Ellipse 10" cx="5.5" cy="5.5" r="5.5" transform="translate(2609 -118)" fill="#fff"/>
      <circle id="Ellipse_12-37" data-name="Ellipse 12" cx="5.5" cy="5.5" r="5.5" transform="translate(2609 77)" fill="#fff"/>
    </g>
    <g transform="translate(-2565 213)">
      <circle id="Ellipse_10-38" data-name="Ellipse 10" cx="5.5" cy="5.5" r="5.5" transform="translate(2609 -118)" fill="#fff"/>
      <circle id="Ellipse_12-38" data-name="Ellipse 12" cx="5.5" cy="5.5" r="5.5" transform="translate(2609 77)" fill="#fff"/>
    </g>
    <g transform="translate(-2543 213)">
      <circle id="Ellipse_10-39" data-name="Ellipse 10" cx="5.5" cy="5.5" r="5.5" transform="translate(2609 -118)" fill="#fff"/>
      <circle id="Ellipse_12-39" data-name="Ellipse 12" cx="5.5" cy="5.5" r="5.5" transform="translate(2609 77)" fill="#fff"/>
    </g>
    <g transform="translate(-2521 213)">
      <circle id="Ellipse_10-40" data-name="Ellipse 10" cx="5.5" cy="5.5" r="5.5" transform="translate(2609 -118)" fill="#fff"/>
      <circle id="Ellipse_12-40" data-name="Ellipse 12" cx="5.5" cy="5.5" r="5.5" transform="translate(2609 77)" fill="#fff"/>
    </g>
    <g transform="translate(-2499 213)">
      <circle id="Ellipse_10-41" data-name="Ellipse 10" cx="5.5" cy="5.5" r="5.5" transform="translate(2609 -118)" fill="#fff"/>
      <circle id="Ellipse_12-41" data-name="Ellipse 12" cx="5.5" cy="5.5" r="5.5" transform="translate(2609 77)" fill="#fff"/>
    </g>
    <g transform="translate(-2477 213)">
      <circle id="Ellipse_10-42" data-name="Ellipse 10" cx="5.5" cy="5.5" r="5.5" transform="translate(2609 -118)" fill="#fff"/>
      <circle id="Ellipse_12-42" data-name="Ellipse 12" cx="5.5" cy="5.5" r="5.5" transform="translate(2609 77)" fill="#fff"/>
    </g>
    <g transform="translate(-2609 232)">
      <circle id="Ellipse_10-43" data-name="Ellipse 10" cx="5.5" cy="5.5" r="5.5" transform="translate(2609 -118)" fill="#fff"/>
      <circle id="Ellipse_12-43" data-name="Ellipse 12" cx="5.5" cy="5.5" r="5.5" transform="translate(2609 77)" fill="#fff"/>
    </g>
    <g transform="translate(-2587 232)">
      <circle id="Ellipse_10-44" data-name="Ellipse 10" cx="5.5" cy="5.5" r="5.5" transform="translate(2609 -118)" fill="#fff"/>
      <circle id="Ellipse_12-44" data-name="Ellipse 12" cx="5.5" cy="5.5" r="5.5" transform="translate(2609 77)" fill="#fff"/>
    </g>
    <g transform="translate(-2565 232)">
      <circle id="Ellipse_10-45" data-name="Ellipse 10" cx="5.5" cy="5.5" r="5.5" transform="translate(2609 -118)" fill="#fff"/>
      <circle id="Ellipse_12-45" data-name="Ellipse 12" cx="5.5" cy="5.5" r="5.5" transform="translate(2609 77)" fill="#fff"/>
    </g>
    <g transform="translate(-2543 232)">
      <circle id="Ellipse_10-46" data-name="Ellipse 10" cx="5.5" cy="5.5" r="5.5" transform="translate(2609 -118)" fill="#fff"/>
      <circle id="Ellipse_12-46" data-name="Ellipse 12" cx="5.5" cy="5.5" r="5.5" transform="translate(2609 77)" fill="#fff"/>
    </g>
    <g transform="translate(-2521 232)">
      <circle id="Ellipse_10-47" data-name="Ellipse 10" cx="5.5" cy="5.5" r="5.5" transform="translate(2609 -118)" fill="#fff"/>
      <circle id="Ellipse_12-47" data-name="Ellipse 12" cx="5.5" cy="5.5" r="5.5" transform="translate(2609 77)" fill="#fff"/>
    </g>
    <g transform="translate(-2499 232)">
      <circle id="Ellipse_10-48" data-name="Ellipse 10" cx="5.5" cy="5.5" r="5.5" transform="translate(2609 -118)" fill="#fff"/>
      <circle id="Ellipse_12-48" data-name="Ellipse 12" cx="5.5" cy="5.5" r="5.5" transform="translate(2609 77)" fill="#fff"/>
    </g>
    <g transform="translate(-2477 232)">
      <circle id="Ellipse_10-49" data-name="Ellipse 10" cx="5.5" cy="5.5" r="5.5" transform="translate(2609 -118)" fill="#fff"/>
      <circle id="Ellipse_12-49" data-name="Ellipse 12" cx="5.5" cy="5.5" r="5.5" transform="translate(2609 77)" fill="#fff"/>
    </g>
  </g>
</svg>