<svg xmlns="http://www.w3.org/2000/svg" width="399.263" height="390.379" viewBox="0 0 399.263 390.379">
  <path id="Ellipse_28" data-name="Ellipse 28" d="M281.861.883a96.314,96.314,0,0,1,43.34,10.18,95.334,95.334,0,0,1,33.443,28.732c9.477,12.839,16.75,28.7,21.13,47.093,4.6,19.329,6.06,41.675,3.435,66.451A275.7,275.7,0,0,1,362.473,231.7a302.023,302.023,0,0,1-45.5,74.738c-19.4,23.3-41.823,42.715-65.821,56.226-24.579,13.838-50.194,21.143-74.964,20.108-24.661-1.031-45.413-10.2-61.5-25.532-15.591-14.86-26.446-35.177-32.328-58.911-5.6-22.608-6.617-48.007-3.081-74.521a280.3,280.3,0,0,1,22.036-76.379,301.843,301.843,0,0,1,38.594-64.176A262.174,262.174,0,0,1,185.4,37.882a194.5,194.5,0,0,1,48.072-27.6C249.511,4.085,265.841.76,281.861.883Z" fill="#4a72b7" opacity="0.201"/>
</svg>